{"accessors":[{"bufferView":0,"byteOffset":0,"componentType":5126,"count":9242,"max":[135.77749633789063,135.77850341796875,16.07469940185547],"min":[-1.640470027923584,-1.640429973602295,0.0],"type":"VEC3"},{"bufferView":1,"byteOffset":0,"componentType":5126,"count":9242,"normalized":false,"type":"VEC2"},{"bufferView":2,"byteOffset":0,"componentType":5125,"count":55440,"type":"SCALAR"}],"asset":{"generator":"VTK","version":"2.0"},"bufferViews":[{"buffer":0,"byteLength":110904,"byteOffset":0,"target":34962},{"buffer":1,"byteLength":73936,"byteOffset":0,"target":34962},{"buffer":2,"byteLength":221760,"byteOffset":0,"target":34963},{"buffer":3,"byteLength":321,"byteOffset":0,"target":34962}],"buffers":[{"byteLength":110904,"uri":"data:application/octet-stream;base64,"},{"byteLength":73936,"uri":"data:application/octet-stream;base64,"},{"byteLength":221760,"uri":"data:application/octet-stream;base64,"},{"byteLength":321,"uri":"data:application/octet-stream;base64,"}],"cameras":[{"perspective":{"aspectRatio":1.5039370078740157,"yfov":0.5235987755982988,"zfar":508.0256967697445,"znear":122.10646532719015},"type":"perspective"}],"images":[{"bufferView":3,"mimeType":"image/png"}],"materials":[{"pbrMetallicRoughness":{"baseColorFactor":[1.0,1.0,1.0,1.0],"baseColorTexture":{"index":0,"texCoord":0},"metallicFactor":0.0,"roughnessFactor":1.0}}],"meshes":[{"name":"mesh0","primitives":[{"attributes":{"POSITION":0,"TEXCOORD_0":1},"indices":2,"material":0,"mode":4}]}],"nodes":[{"mesh":0,"name":"mesh0"},{"camera":0,"matrix":[0.2760321425197166,-0.9491501769443422,0.15139418054370088,-0.0,0.11161712198009151,0.18810328928405207,0.9757862320413226,0.0,-0.9546454181406082,-0.2524501815547853,0.15786396503350503,-0.0,-210.8204988252628,-18.972396484020106,43.63031553303715,1.0],"name":"Camera Node"},{"children":[0,1],"name":"Renderer Node"}],"samplers":[{"magFilter":9728,"minFilter":9728,"wrapS":33071,"wrapT":33071}],"scene":0,"scenes":[{"name":"Layer 0","nodes":[2]}],"textures":[{"sampler":0,"source":0}]}