{"accessors":[{"bufferView":0,"byteOffset":0,"componentType":5126,"count":20802,"max":[136.48129272460938,136.48170471191406,14.996999740600586],"min":[-1.1820800304412842,-1.1820499897003174,-3.005790061294533e-12],"type":"VEC3"},{"bufferView":1,"byteOffset":0,"componentType":5126,"count":20802,"normalized":false,"type":"VEC2"},{"bufferView":2,"byteOffset":0,"componentType":5125,"count":124800,"type":"SCALAR"}],"asset":{"generator":"VTK","version":"2.0"},"bufferViews":[{"buffer":0,"byteLength":249624,"byteOffset":0,"target":34962},{"buffer":1,"byteLength":166416,"byteOffset":0,"target":34962},{"buffer":2,"byteLength":499200,"byteOffset":0,"target":34963},{"buffer":3,"byteLength":321,"byteOffset":0,"target":34962}],"buffers":[{"byteLength":249624,"uri":"data:application/octet-stream;base64,"},{"byteLength":166416,"uri":"data:application/octet-stream;base64,"},{"byteLength":499200,"uri":"data:application/octet-stream;base64,"},{"byteLength":321,"uri":"data:application/octet-stream;base64,"}],"cameras":[{"perspective":{"aspectRatio":1.5039370078740157,"yfov":0.5235987755982988,"zfar":484.6339152939944,"znear":58.592077467251514},"type":"perspective"}],"images":[{"bufferView":3,"mimeType":"image/png"}],"materials":[{"pbrMetallicRoughness":{"baseColorFactor":[1.0,1.0,1.0,1.0],"baseColorTexture":{"index":0,"texCoord":0},"metallicFactor":0.0,"roughnessFactor":1.0}}],"meshes":[{"name":"mesh0","primitives":[{"attributes":{"POSITION":0,"TEXCOORD_0":1},"indices":2,"material":0,"mode":4}]}],"nodes":[{"mesh":0,"name":"mesh0"},{"camera":0,"matrix":[0.6131734088766753,-0.7704953384964809,0.17422773602888478,-0.0,0.1468704138326624,0.32790655885529013,0.933223644256994,0.0,-0.7761748850530916,-0.5466390235016847,0.3142265517074339,-0.0,-125.25638302412338,-73.42834060160419,71.45077406249837,1.0],"name":"Camera Node"},{"children":[0,1],"name":"Renderer Node"}],"samplers":[{"magFilter":9728,"minFilter":9728,"wrapS":33071,"wrapT":33071}],"scene":0,"scenes":[{"name":"Layer 0","nodes":[2]}],"textures":[{"sampler":0,"source":0}]}