{"accessors":[{"bufferView":0,"byteOffset":0,"componentType":5126,"count":20802,"max":[115.33200073242188,115.33200073242188,2.3086259365081787],"min":[-0.0009415969834662974,-0.0009415950044058263,-1.2246299894297374e-12],"type":"VEC3"},{"bufferView":1,"byteOffset":0,"componentType":5126,"count":20802,"normalized":false,"type":"VEC2"},{"bufferView":2,"byteOffset":0,"componentType":5125,"count":124800,"type":"SCALAR"}],"asset":{"generator":"VTK","version":"2.0"},"bufferViews":[{"buffer":0,"byteLength":249624,"byteOffset":0,"target":34962},{"buffer":1,"byteLength":166416,"byteOffset":0,"target":34962},{"buffer":2,"byteLength":499200,"byteOffset":0,"target":34963},{"buffer":3,"byteLength":321,"byteOffset":0,"target":34962}],"buffers":[{"byteLength":249624,"uri":"data:application/octet-stream;base64,"},{"byteLength":166416,"uri":"data:application/octet-stream;base64,"},{"byteLength":499200,"uri":"data:application/octet-stream;base64,"},{"byteLength":321,"uri":"data:application/octet-stream;base64,"}],"cameras":[{"perspective":{"aspectRatio":1.5039370078740157,"yfov":0.5235987755982988,"zfar":510.3515603293775,"znear":203.4332308600788},"type":"perspective"}],"images":[{"bufferView":3,"mimeType":"image/png"}],"materials":[{"pbrMetallicRoughness":{"baseColorFactor":[1.0,1.0,1.0,1.0],"baseColorTexture":{"index":0,"texCoord":0},"metallicFactor":0.0,"roughnessFactor":1.0}}],"meshes":[{"name":"mesh0","primitives":[{"attributes":{"POSITION":0,"TEXCOORD_0":1},"indices":2,"material":0,"mode":4}]}],"nodes":[{"mesh":0,"name":"mesh0"},{"camera":0,"matrix":[0.963143706951745,-0.16255179917064974,0.21431545055276785,-0.0,-0.13961718381925692,0.3789126665870392,0.9148400040893923,0.0,-0.22991572747776734,-0.9110445124615396,0.3422523258826521,-0.0,-26.007015424471035,-251.1789366072834,113.64396843486628,1.0],"name":"Camera Node"},{"children":[0,1],"name":"Renderer Node"}],"samplers":[{"magFilter":9728,"minFilter":9728,"wrapS":33071,"wrapT":33071}],"scene":0,"scenes":[{"name":"Layer 0","nodes":[2]}],"textures":[{"sampler":0,"source":0}]}