{"accessors":[{"bufferView":0,"byteOffset":0,"componentType":5126,"count":20802,"max":[110.21379852294922,110.36270141601563,4.9340500831604],"min":[-0.6028310060501099,-0.4540190100669861,-6.301569938659668],"type":"VEC3"},{"bufferView":1,"byteOffset":0,"componentType":5126,"count":20802,"normalized":false,"type":"VEC2"},{"bufferView":2,"byteOffset":0,"componentType":5125,"count":124800,"type":"SCALAR"}],"asset":{"generator":"VTK","version":"2.0"},"bufferViews":[{"buffer":0,"byteLength":249624,"byteOffset":0,"target":34962},{"buffer":1,"byteLength":166416,"byteOffset":0,"target":34962},{"buffer":2,"byteLength":499200,"byteOffset":0,"target":34963},{"buffer":3,"byteLength":321,"byteOffset":0,"target":34962}],"buffers":[{"byteLength":249624,"uri":"data:application/octet-stream;base64,"},{"byteLength":166416,"uri":"data:application/octet-stream;base64,"},{"byteLength":499200,"uri":"data:application/octet-stream;base64,"},{"byteLength":321,"uri":"data:application/octet-stream;base64,"}],"cameras":[{"perspective":{"aspectRatio":1.4923076923076923,"yfov":0.5235987755982988,"zfar":454.6949794901618,"znear":135.8006240358987},"type":"perspective"}],"images":[{"bufferView":3,"mimeType":"image/png"}],"materials":[{"pbrMetallicRoughness":{"baseColorFactor":[1.0,1.0,1.0,1.0],"baseColorTexture":{"index":0,"texCoord":0},"metallicFactor":0.0,"roughnessFactor":1.0}}],"meshes":[{"name":"mesh0","primitives":[{"attributes":{"POSITION":0,"TEXCOORD_0":1},"indices":2,"material":0,"mode":4}]}],"nodes":[{"mesh":0,"name":"mesh0"},{"camera":0,"matrix":[0.9278253862720619,0.35423193030384603,0.11687511344298313,-0.0,-0.20074420015198163,0.21009883282140743,0.9568491242366393,0.0,0.31439118736764904,-0.9112509094647279,0.2660450362349698,-0.0,135.90185863158632,-198.9832729032739,73.69212373172051,1.0],"name":"Camera Node"},{"children":[0,1],"name":"Renderer Node"}],"samplers":[{"magFilter":9728,"minFilter":9728,"wrapS":33071,"wrapT":33071}],"scene":0,"scenes":[{"name":"Layer 0","nodes":[2]}],"textures":[{"sampler":0,"source":0}]}