{"accessors":[{"bufferView":0,"byteOffset":0,"componentType":5126,"count":9242,"max":[110.02770233154297,110.0280990600586,7.103919982910156],"min":[-0.6463050246238708,-0.6462630033493042,0.0],"type":"VEC3"},{"bufferView":1,"byteOffset":0,"componentType":5126,"count":9242,"normalized":false,"type":"VEC2"},{"bufferView":2,"byteOffset":0,"componentType":5125,"count":55440,"type":"SCALAR"}],"asset":{"generator":"VTK","version":"2.0"},"bufferViews":[{"buffer":0,"byteLength":110904,"byteOffset":0,"target":34962},{"buffer":1,"byteLength":73936,"byteOffset":0,"target":34962},{"buffer":2,"byteLength":221760,"byteOffset":0,"target":34963},{"buffer":3,"byteLength":321,"byteOffset":0,"target":34962}],"buffers":[{"byteLength":110904,"uri":"data:application/octet-stream;base64,"},{"byteLength":73936,"uri":"data:application/octet-stream;base64,"},{"byteLength":221760,"uri":"data:application/octet-stream;base64,"},{"byteLength":321,"uri":"data:application/octet-stream;base64,"}],"cameras":[{"perspective":{"aspectRatio":1.4923076923076923,"yfov":0.5235987755982988,"zfar":459.9902926046373,"znear":127.70269105797284},"type":"perspective"}],"images":[{"bufferView":3,"mimeType":"image/png"}],"materials":[{"pbrMetallicRoughness":{"baseColorFactor":[1.0,1.0,1.0,1.0],"baseColorTexture":{"index":0,"texCoord":0},"metallicFactor":0.0,"roughnessFactor":1.0}}],"meshes":[{"name":"mesh0","primitives":[{"attributes":{"POSITION":0,"TEXCOORD_0":1},"indices":2,"material":0,"mode":4}]}],"nodes":[{"mesh":0,"name":"mesh0"},{"camera":0,"matrix":[0.8934382896435374,0.4490892599899911,-0.009319826203991561,-0.0,-0.11775620412037768,0.2541912222065684,0.9599584881359665,-0.0,0.4334760650716373,-0.8565662024121502,0.27998721737828763,-0.0,168.43970555833943,-184.04163915752562,77.50157934533907,1.0],"name":"Camera Node"},{"children":[0,1],"name":"Renderer Node"}],"samplers":[{"magFilter":9728,"minFilter":9728,"wrapS":33071,"wrapT":33071}],"scene":0,"scenes":[{"name":"Layer 0","nodes":[2]}],"textures":[{"sampler":0,"source":0}]}