{"accessors":[{"bufferView":0,"byteOffset":0,"componentType":5126,"count":20802,"max":[107.65743255615234,107.65743255615234,2.222322940826416],"min":[-0.03158719837665558,-0.03158719837665558,-6.682739756534717e-13],"type":"VEC3"},{"bufferView":1,"byteOffset":0,"componentType":5126,"count":20802,"normalized":false,"type":"VEC2"},{"bufferView":2,"byteOffset":0,"componentType":5125,"count":124800,"type":"SCALAR"}],"asset":{"generator":"VTK","version":"2.0"},"bufferViews":[{"buffer":0,"byteLength":249624,"byteOffset":0,"target":34962},{"buffer":1,"byteLength":166416,"byteOffset":0,"target":34962},{"buffer":2,"byteLength":499200,"byteOffset":0,"target":34963},{"buffer":3,"byteLength":321,"byteOffset":0,"target":34962}],"buffers":[{"byteLength":249624,"uri":"data:application/octet-stream;base64,"},{"byteLength":166416,"uri":"data:application/octet-stream;base64,"},{"byteLength":499200,"uri":"data:application/octet-stream;base64,"},{"byteLength":321,"uri":"data:application/octet-stream;base64,"}],"cameras":[{"perspective":{"aspectRatio":1.5039370078740157,"yfov":0.5235987755982988,"zfar":433.08504698911884,"znear":184.5094957278531},"type":"perspective"}],"images":[{"bufferView":3,"mimeType":"image/png"}],"materials":[{"pbrMetallicRoughness":{"baseColorFactor":[1.0,1.0,1.0,1.0],"baseColorTexture":{"index":0,"texCoord":0},"metallicFactor":0.0,"roughnessFactor":1.0}}],"meshes":[{"name":"mesh0","primitives":[{"attributes":{"POSITION":0,"TEXCOORD_0":1},"indices":2,"material":0,"mode":4}]}],"nodes":[{"mesh":0,"name":"mesh0"},{"camera":0,"matrix":[0.45476714959844916,0.7533029850729226,-0.4751015179162511,-0.0,-0.3311258983760413,0.638228163712852,0.6949967269479624,-0.0,0.8267662783826888,-0.15874326355453702,0.5396833304867712,-0.0,297.08327421407887,7.1037975748755,159.90930909446152,1.0],"name":"Camera Node"},{"children":[0,1],"name":"Renderer Node"}],"samplers":[{"magFilter":9728,"minFilter":9728,"wrapS":33071,"wrapT":33071}],"scene":0,"scenes":[{"name":"Layer 0","nodes":[2]}],"textures":[{"sampler":0,"source":0}]}