{"accessors":[{"bufferView":0,"byteOffset":0,"componentType":5126,"count":9242,"max":[100.79247283935547,100.7939453125,6.959549903869629],"min":[-0.26607900857925415,-0.2662070095539093,-7.911690068005111e-15],"type":"VEC3"},{"bufferView":1,"byteOffset":0,"componentType":5126,"count":9242,"normalized":false,"type":"VEC2"},{"bufferView":2,"byteOffset":0,"componentType":5125,"count":55440,"type":"SCALAR"}],"asset":{"generator":"VTK","version":"2.0"},"bufferViews":[{"buffer":0,"byteLength":110904,"byteOffset":0,"target":34962},{"buffer":1,"byteLength":73936,"byteOffset":0,"target":34962},{"buffer":2,"byteLength":221760,"byteOffset":0,"target":34963},{"buffer":3,"byteLength":321,"byteOffset":0,"target":34962}],"buffers":[{"byteLength":110904,"uri":"data:application/octet-stream;base64,"},{"byteLength":73936,"uri":"data:application/octet-stream;base64,"},{"byteLength":221760,"uri":"data:application/octet-stream;base64,"},{"byteLength":321,"uri":"data:application/octet-stream;base64,"}],"cameras":[{"perspective":{"aspectRatio":1.5039370078740157,"yfov":0.5235987755982988,"zfar":408.7485338304152,"znear":164.3671205066965},"type":"perspective"}],"images":[{"bufferView":3,"mimeType":"image/png"}],"materials":[{"pbrMetallicRoughness":{"baseColorFactor":[1.0,1.0,1.0,1.0],"baseColorTexture":{"index":0,"texCoord":0},"metallicFactor":0.0,"roughnessFactor":1.0}}],"meshes":[{"name":"mesh0","primitives":[{"attributes":{"POSITION":0,"TEXCOORD_0":1},"indices":2,"material":0,"mode":4}]}],"nodes":[{"mesh":0,"name":"mesh0"},{"camera":0,"matrix":[0.9131380899383421,-0.4055067939262306,-0.041750075250535514,-0.0,0.288563382859533,0.5706428454818315,0.7688289256870222,-0.0,-0.28794097099304655,-0.7140945196401299,0.6380901301881369,-0.0,-28.684634303216047,-145.13814217557538,175.86868526625042,1.0],"name":"Camera Node"},{"children":[0,1],"name":"Renderer Node"}],"samplers":[{"magFilter":9728,"minFilter":9728,"wrapS":33071,"wrapT":33071}],"scene":0,"scenes":[{"name":"Layer 0","nodes":[2]}],"textures":[{"sampler":0,"source":0}]}