{"accessors":[{"bufferView":0,"byteOffset":0,"componentType":5126,"count":9242,"max":[92.8804702758789,92.8804702758789,2.7864010334014893],"min":[-6.104240310378373e-05,-6.104190106270835e-05,-0.00034878001315519214],"type":"VEC3"},{"bufferView":1,"byteOffset":0,"componentType":5126,"count":9242,"normalized":false,"type":"VEC2"},{"bufferView":2,"byteOffset":0,"componentType":5125,"count":55440,"type":"SCALAR"}],"asset":{"generator":"VTK","version":"2.0"},"bufferViews":[{"buffer":0,"byteLength":110904,"byteOffset":0,"target":34962},{"buffer":1,"byteLength":73936,"byteOffset":0,"target":34962},{"buffer":2,"byteLength":221760,"byteOffset":0,"target":34963},{"buffer":3,"byteLength":321,"byteOffset":0,"target":34962}],"buffers":[{"byteLength":110904,"uri":"data:application/octet-stream;base64,"},{"byteLength":73936,"uri":"data:application/octet-stream;base64,"},{"byteLength":221760,"uri":"data:application/octet-stream;base64,"},{"byteLength":321,"uri":"data:application/octet-stream;base64,"}],"cameras":[{"perspective":{"aspectRatio":1.5039370078740157,"yfov":0.5235987755982988,"zfar":418.91107711250766,"znear":150.10826642890117},"type":"perspective"}],"images":[{"bufferView":3,"mimeType":"image/png"}],"materials":[{"pbrMetallicRoughness":{"baseColorFactor":[1.0,1.0,1.0,1.0],"baseColorTexture":{"index":0,"texCoord":0},"metallicFactor":0.0,"roughnessFactor":1.0}}],"meshes":[{"name":"mesh0","primitives":[{"attributes":{"POSITION":0,"TEXCOORD_0":1},"indices":2,"material":0,"mode":4}]}],"nodes":[{"mesh":0,"name":"mesh0"},{"camera":0,"matrix":[0.9408906752437546,-0.28372578828875483,0.18499841701829928,-0.0,-0.13892631503331732,0.17485716945153204,0.9747432735252199,0.0,-0.30890810321293827,-0.942828005179801,0.12510450198958373,-0.0,-34.414250083212465,-207.64335149163097,35.68687502090153,1.0],"name":"Camera Node"},{"children":[0,1],"name":"Renderer Node"}],"samplers":[{"magFilter":9728,"minFilter":9728,"wrapS":33071,"wrapT":33071}],"scene":0,"scenes":[{"name":"Layer 0","nodes":[2]}],"textures":[{"sampler":0,"source":0}]}