{"accessors":[{"bufferView":0,"byteOffset":0,"componentType":5126,"count":20802,"max":[92.99447631835938,92.99447631835938,1.859881043434143],"min":[-6.219730130396783e-05,-6.219709757715464e-05,-0.0003456439881119877],"type":"VEC3"},{"bufferView":1,"byteOffset":0,"componentType":5126,"count":20802,"normalized":false,"type":"VEC2"},{"bufferView":2,"byteOffset":0,"componentType":5125,"count":124800,"type":"SCALAR"}],"asset":{"generator":"VTK","version":"2.0"},"bufferViews":[{"buffer":0,"byteLength":249624,"byteOffset":0,"target":34962},{"buffer":1,"byteLength":166416,"byteOffset":0,"target":34962},{"buffer":2,"byteLength":499200,"byteOffset":0,"target":34963},{"buffer":3,"byteLength":321,"byteOffset":0,"target":34962}],"buffers":[{"byteLength":249624,"uri":"data:application/octet-stream;base64,"},{"byteLength":166416,"uri":"data:application/octet-stream;base64,"},{"byteLength":499200,"uri":"data:application/octet-stream;base64,"},{"byteLength":321,"uri":"data:application/octet-stream;base64,"}],"cameras":[{"perspective":{"aspectRatio":1.5039370078740157,"yfov":0.5235987755982988,"zfar":417.74341950566554,"znear":151.52783769701927},"type":"perspective"}],"images":[{"bufferView":3,"mimeType":"image/png"}],"materials":[{"pbrMetallicRoughness":{"baseColorFactor":[1.0,1.0,1.0,1.0],"baseColorTexture":{"index":0,"texCoord":0},"metallicFactor":0.0,"roughnessFactor":1.0}}],"meshes":[{"name":"mesh0","primitives":[{"attributes":{"POSITION":0,"TEXCOORD_0":1},"indices":2,"material":0,"mode":4}]}],"nodes":[{"mesh":0,"name":"mesh0"},{"camera":0,"matrix":[0.9374169392513724,-0.29400312903564996,0.18657878261430408,-0.0,-0.08484831055383281,0.3268107693236051,0.941273331849083,0.0,-0.33771326032708454,-0.8981964602309234,0.2814122822975048,-0.0,-42.285735845577456,-195.4470434060593,78.4005621000953,1.0],"name":"Camera Node"},{"children":[0,1],"name":"Renderer Node"}],"samplers":[{"magFilter":9728,"minFilter":9728,"wrapS":33071,"wrapT":33071}],"scene":0,"scenes":[{"name":"Layer 0","nodes":[2]}],"textures":[{"sampler":0,"source":0}]}