{"accessors":[{"bufferView":0,"byteOffset":0,"componentType":5126,"count":9242,"max":[85.39720153808594,85.39720153808594,2.493882894515991],"min":[-0.20805299282073975,-0.20805099606513977,-3.478070020675659],"type":"VEC3"},{"bufferView":1,"byteOffset":0,"componentType":5126,"count":9242,"normalized":false,"type":"VEC2"},{"bufferView":2,"byteOffset":0,"componentType":5125,"count":55440,"type":"SCALAR"}],"asset":{"generator":"VTK","version":"2.0"},"bufferViews":[{"buffer":0,"byteLength":110904,"byteOffset":0,"target":34962},{"buffer":1,"byteLength":73936,"byteOffset":0,"target":34962},{"buffer":2,"byteLength":221760,"byteOffset":0,"target":34963},{"buffer":3,"byteLength":321,"byteOffset":0,"target":34962}],"buffers":[{"byteLength":110904,"uri":"data:application/octet-stream;base64,"},{"byteLength":73936,"uri":"data:application/octet-stream;base64,"},{"byteLength":221760,"uri":"data:application/octet-stream;base64,"},{"byteLength":321,"uri":"data:application/octet-stream;base64,"}],"cameras":[{"perspective":{"aspectRatio":1.4923076923076923,"yfov":0.5235987755982988,"zfar":445.074091207557,"znear":139.17774147159693},"type":"perspective"}],"images":[{"bufferView":3,"mimeType":"image/png"}],"materials":[{"pbrMetallicRoughness":{"baseColorFactor":[1.0,1.0,1.0,1.0],"baseColorTexture":{"index":0,"texCoord":0},"metallicFactor":0.0,"roughnessFactor":1.0}}],"meshes":[{"name":"mesh0","primitives":[{"attributes":{"POSITION":0,"TEXCOORD_0":1},"indices":2,"material":0,"mode":4}]}],"nodes":[{"mesh":0,"name":"mesh0"},{"camera":0,"matrix":[0.4389079272386846,-0.8970145283778233,0.052199303502559836,-0.0,0.12386339342715977,0.11794099892495458,0.9852653350957253,0.0,-0.8899537578861891,-0.4259751831406317,0.1628725028129523,-0.0,-194.18257844824134,-66.90873414263932,44.48671670074796,1.0],"name":"Camera Node"},{"children":[0,1],"name":"Renderer Node"}],"samplers":[{"magFilter":9728,"minFilter":9728,"wrapS":33071,"wrapT":33071}],"scene":0,"scenes":[{"name":"Layer 0","nodes":[2]}],"textures":[{"sampler":0,"source":0}]}